<?xml version="1.0" encoding="UTF-8" standalone="no"?>
<svg
   aria-hidden="true"
   alt=""
   id="Calque_1"
   viewBox="0 0 572.91851 421.631"
   version="1.1"
   sodipodi:docname="header-curves.svg"
   width="572.91852"
   height="421.63101"
   inkscape:version="1.3 (0e150ed6c4, 2023-07-21)"
   xmlns:inkscape="http://www.inkscape.org/namespaces/inkscape"
   xmlns:sodipodi="http://sodipodi.sourceforge.net/DTD/sodipodi-0.dtd"
   xmlns="http://www.w3.org/2000/svg"
   xmlns:svg="http://www.w3.org/2000/svg">
  <sodipodi:namedview
     id="namedview2"
     pagecolor="#535353"
     bordercolor="#999999"
     borderopacity="1"
     inkscape:showpageshadow="2"
     inkscape:pageopacity="0"
     inkscape:pagecheckerboard="0"
     inkscape:deskcolor="#d1d1d1"
     inkscape:export-bgcolor="#ffffff00"
     inkscape:zoom="1.8101934"
     inkscape:cx="541.65485"
     inkscape:cy="84.521358"
     inkscape:window-width="1920"
     inkscape:window-height="1009"
     inkscape:window-x="-8"
     inkscape:window-y="-8"
     inkscape:window-maximized="1"
     inkscape:current-layer="Calque_1"
     inkscape:document-units="px" />
  <defs
     id="defs1">
    <style
       id="style1">.cls-1{fill:#ffffff;}</style>
  </defs>
  <path
     d="m 286.4631,210.814 c 0,0 -0.01,0 -0.01,0 -5.166,0 -10.3015,0.132 -15.4043,0.391 -5.1059,0.26 -10.1786,0.647 -15.2148,1.16 -5.0362,0.513 -10.0359,1.152 -14.9961,1.912 -4.9602,0.76 -9.882,1.642 -14.7598,2.643 -4.8777,1.001 -9.7129,2.12 -14.5019,3.355 -4.7891,1.236 -9.5326,2.586 -14.2266,4.049 -4.694,1.463 -9.339,3.038 -13.9316,4.723 -4.5926,1.685 -9.1323,3.481 -13.6172,5.381 -4.4849,1.9 -8.9143,3.906 -13.2852,6.015 -4.3708,2.11 -8.6831,4.321 -12.9336,6.633 -4.2504,2.312 -8.4387,4.724 -12.5625,7.233 -4.1237,2.508 -8.1831,5.112 -12.1738,7.81 -3.9907,2.699 -7.9124,5.491 -11.7637,8.373 -3.8512,2.882 -7.632297,5.853 -11.337797,8.912 -3.7056,3.06 -7.3352,6.207 -10.8887,9.438 -3.5535,3.23 -7.030603,6.544 -10.425803,9.939 -3.3952,3.395 -6.709,6.873 -9.9395,10.426 -3.2304,3.554 -6.3761,7.183 -9.4355,10.889 -3.0594,3.705 -6.032,7.486 -8.9141,11.338 -2.882,3.851 -5.6747,7.773 -8.373,11.763 -2.6983,3.991 -5.3023,8.05 -7.8106,12.174 -2.5082,4.124 -4.9205,8.312 -7.2324,12.563 -2.3119,4.25 -4.5236,8.562 -6.6328,12.933 -2.1092,4.371 -4.1154,8.801 -6.0156,13.285 C 8.176,398.637 6.3821,403.177 4.6973,407.77 3.0221,412.336 1.456,416.955 0,421.621 v 0.01 h 132.2246 c 2.0554,-3.54 4.0866,-7.097 6.3731,-10.478 3.2087,-4.746 6.6392,-9.329 10.2773,-13.735 3.6381,-4.406 7.4842,-8.637 11.5215,-12.674 4.0373,-4.037 8.2674,-7.881 12.6738,-11.519 4.4065,-3.638 8.9889,-7.069 13.7344,-10.277 4.7455,-3.209 9.6527,-6.195 14.707,-8.944 5.0544,-2.749 10.2568,-5.26 15.5899,-7.519 2.6665,-1.13 5.3651,-2.196 8.0957,-3.198 2.7306,-1.001 5.4923,-1.938 8.2832,-2.808 2.7908,-0.87 5.6116,-1.674 8.459,-2.408 2.8473,-0.735 5.721,-1.4 8.6211,-1.995 2.9001,-0.595 5.8263,-1.118 8.7754,-1.57 2.949,-0.452 5.9217,-0.832 8.916,-1.137 2.9943,-0.305 6.0111,-0.537 9.0468,-0.691 3.0358,-0.154 6.0907,-0.232 9.1641,-0.232 z"
     style="fill:#3dc7ff;fill-opacity:1;stroke:none;stroke-width:3.77953"
     id="path11-1"
     inkscape:export-filename="..\OneDrive - Eviden\Desktop\header-curves.svg"
     inkscape:export-xdpi="96.099998"
     inkscape:export-ydpi="96.099998" />
  <path
     d="M 572.9183,0 H 440.6897 c -2.0551,3.54 -4.085,7.098 -6.3711,10.479 -3.2087,4.745 -6.6412,9.328 -10.2793,13.734 -3.6381,4.406 -7.4822,8.635 -11.5195,12.672 -4.0374,4.037 -8.2674,7.882 -12.6739,11.519 -4.4064,3.638 -8.9908,7.069 -13.7363,10.278 -4.7454,3.208 -9.6527,6.194 -14.707,8.943 -5.0543,2.749 -10.2548,5.262 -15.5879,7.522 -2.6665,1.129 -5.3671,2.195 -8.0977,3.197 -2.7305,1.001 -5.4904,1.939 -8.2812,2.808 -2.7909,0.87 -5.6116,1.672 -8.459,2.407 -2.8474,0.734 -5.7229,1.401 -8.623,1.996 -2.9002,0.595 -5.8244,1.118 -8.7735,1.57 -2.9491,0.452 -5.9217,0.832 -8.916,1.137 -2.9943,0.305 -6.0111,0.535 -9.0469,0.689 -3.0357,0.155 -6.0906,0.233 -9.164,0.233 v 121.63 c 0,0 0.01,0 0.01,0 5.166,0 10.3015,-0.131 15.4043,-0.39 5.1059,-0.26 10.1786,-0.649 15.2148,-1.162 5.0362,-0.513 10.0359,-1.15 14.9961,-1.91 4.9602,-0.76 9.882,-1.642 14.7598,-2.643 4.8777,-1.001 9.7109,-2.12 14.5,-3.355 4.789,-1.236 9.5325,-2.586 14.2265,-4.049 4.694,-1.463 9.3391,-3.04 13.9317,-4.725 4.5926,-1.685 9.1323,-3.479 13.6172,-5.379 4.4848,-1.9 8.9143,-3.906 13.2851,-6.015 4.3708,-2.11 8.6832,-4.321 12.9336,-6.633 4.2504,-2.312 8.4407,-4.724 12.5644,-7.233 4.1238,-2.508 8.1813,-5.112 12.172,-7.81 3.9906,-2.699 7.9143,-5.491 11.7656,-8.373 3.8513,-2.882 7.6303,-5.855 11.3359,-8.914 3.7056,-3.06 7.3371,-6.205 10.8906,-9.436 3.5536,-3.23 7.0287,-6.546 10.4239,-9.941 3.3951,-3.395 6.7109,-6.871 9.9414,-10.424 3.2304,-3.554 6.3761,-7.185 9.4355,-10.891 3.0594,-3.705 6.0321,-7.484 8.9141,-11.336 2.882,-3.851 5.6728,-7.775 8.3711,-11.765 2.6984,-3.991 5.3042,-8.048 7.8125,-12.172 2.5083,-4.124 4.9205,-8.314 7.2324,-12.565 2.312,-4.25 4.5236,-8.56 6.6329,-12.931 2.1092,-4.371 4.1154,-8.801 6.0156,-13.285 1.9002,-4.485 3.6941,-9.027 5.3789,-13.62 C 569.8951,9.289 571.462,4.668 572.9185,0 Z"
     style="fill:#3dc7ff;fill-opacity:1;stroke:none;stroke-width:3.77953"
     id="path10-1"
     inkscape:export-filename="..\OneDrive - Eviden\Desktop\header-curves.svg"
     inkscape:export-xdpi="96.099998"
     inkscape:export-ydpi="96.099998" />
</svg>
